<svg xmlns="http://www.w3.org/2000/svg" viewBox="0 0 577 433"><path fill="#54a464" d="M276.5 84.349c-11.742 3.891-13.488 5.41-62.25 54.127-25.988 25.965-47.25 47.479-47.25 47.811 0 .332 3.98.61 8.845.618 9.351.014 23.337 2.382 26.602 4.503 1.653 1.075 2.464.913 5.389-1.072 5.482-3.72 39.519-3.584 46.611.187l4.744 2.522-1.965-3.272c-1.081-1.8-4.285-7.244-7.121-12.097l-5.156-8.824 10.791-18.676 10.791-18.676h43.942l9.525 16.5 9.525 16.5 11.287.283c10.4.261 11.54.104 14.489-2 2.859-2.039 4.573-2.318 16.033-2.614l12.832-.331-34.452-34.407c-32.92-32.876-34.802-34.572-42.32-38.143-9.005-4.276-22.876-5.596-30.892-2.939m-5.414 63.666c-1.697 2.758-3.086 5.182-3.086 5.386 0 .203-2.002 3.684-4.448 7.735l-4.449 7.364 2.597 4.5 6.198 10.737c2.672 4.626 3.99 6.051 5.102 5.514 2.315-1.116 27.235-1.471 30.024-.427 2.354.88 2.781.405 8.659-9.635l6.184-10.56-2.613-4.565c-1.437-2.51-3.432-5.758-4.434-7.218-1.001-1.46-1.82-2.916-1.82-3.235 0-.32-1.389-2.838-3.086-5.596L302.828 143h-28.656l-3.086 5.015m91.303 21.928c-1.161.489-2.389 1.615-2.729 2.501-1.147 2.99-1.948 47.913-1.192 66.837l.751 18.781 2.841 1.469c3.479 1.799 23.989 2.045 28.862.346 1.915-.667 3.611-2.149 4.183-3.654l.963-2.532 2.716 2.466c5.515 5.007 20.459 7.502 29.775 4.971C442.504 257.34 447.5 248.866 447.5 229c0-19.218-4.148-27.058-16.734-31.626-8.841-3.208-24.412-.737-29.285 4.647-3.797 4.196-4.284 2.782-4.641-13.487-.441-20.07.6-18.963-18.123-19.258-7.819-.123-15.167.177-16.328.667m-40.383 16.047c-7.145 12.221-8.065 14.333-7.277 16.697.863 2.588 1.013 2.426 3.458-3.74C322 189.332 324.429 188 338.148 188H349v-6.418c0-3.53.273-7.13.607-8 .529-1.378-.686-1.582-9.408-1.582h-10.014l-8.179 13.99m84.994-.561c0 1.619.556 2.571 1.5 2.571.825 0 1.5-.482 1.5-1.071 0-.59-.675-1.747-1.5-2.572-1.333-1.333-1.5-1.214-1.5 1.072m-146.161 12.997c.876 2.434 1.942 4.21 2.369 3.945.693-.428-2.727-8.371-3.604-8.371-.196 0 .36 1.992 1.235 4.426m-100.339-.952c-21.679 4.007-31.348 14.026-31.456 32.594-.132 22.713 11.002 31.793 40.093 32.695 28.275.878 38.282-5.01 32.84-19.323-1.121-2.948.179-2.883-16.086-.802-11.62 1.486-19.073-9.656-14.052-21.008 2.996-6.772 8.194-8.121 20.311-5.269 3.293.775 6.281.977 7.163.484 3.796-2.124 2.733-14.679-1.431-16.908-6.593-3.529-25.039-4.744-37.382-2.463m53.25.561c-.963.585-1.75 2.073-1.75 3.307 0 4.096 11.985 33.749 20.372 50.403 4.468 8.874 7.412 10.485 20.128 11.016 14.301.597 16.723-1.071 22.5-15.497 2.475-6.18 4.787-11.243 5.138-11.25.35-.008 2.122 3.699 3.938 8.236 6.428 16.068 8.674 17.883 22.969 18.567 15.965.763 19.272-2.554 28.729-28.817a9871.406 9871.406 0 0 1 7.197-19.889c5.727-15.775 5.549-16.534-3.978-16.899-9.785-.375-9.927-.239-16.053 15.287-2.82 7.15-5.607 13.295-6.193 13.658-1.268.783-3.747-.019-3.747-1.212 0-.462-2.3-6.463-5.111-13.334-5.963-14.575-6.012-14.611-19.816-14.611-11.303 0-11.656.299-19.458 16.523-3.564 7.412-6.848 13.47-7.298 13.462-2.206-.042-3.251-2.411-5.922-13.431-4.103-16.932-2.787-16-23.055-16.319-10.62-.167-17.486.128-18.59.8m186.885 21.038c-3.787 2.978-4.008 17.289-.321 20.753 2.984 2.803 7.778 2.835 10.281.069 3.105-3.431 2.781-18.362-.456-20.983-3.058-2.477-6.219-2.423-9.504.161m-220.241 6.343c-2.517 6.558 1.106 8.551 11.871 6.529 5.03-.946 7.673-.993 10.308-.184 1.949.598 3.39.784 3.203.413l-1.668-3.314c-1.156-2.297-1.801-2.577-4.968-2.155-2.002.267-6.405-.232-9.784-1.11-7.518-1.952-8.276-1.967-8.962-.179m31.685 24.9c-.043 4.298-.545 8.686-1.114 9.75-.986 1.842-.629 1.934 7.493 1.934h8.527l-4.215-8.5c-3.73-7.52-4.526-8.5-6.91-8.5-1.481 0-2.92-.562-3.198-1.25-.277-.687-.54 2.267-.583 6.566m125.474 3.934c-2.41 5.087-9.487 18.025-15.727 28.75l-11.345 19.5H266.5l-7.797-13.5a4765.59 4765.59 0 0 0-8.531-14.735c-2.627-4.417-45.194-7.462-54.932-3.93l-3.26 1.182 35.76 35.638c21.8 21.726 37.322 36.417 39.76 37.632 13.718 6.834 28.281 6.834 42 0 2.441-1.216 18.134-16.077 40.274-38.14l36.275-36.147-13.356-.5c-18.745-.702-23.693-4.663-23.693-18.968V245h-3.533c-3.473 0-3.606.156-7.914 9.25m-60.348 9.798c-1.868 2.225-5.305 4.631-8.516 5.962l-5.384 2.232 5.251 9.129 5.251 9.129H303.25l4.814-8.5 4.814-8.5-6.379-.662c-11.165-1.158-17.536-3.545-22.08-8.274l-4.082-4.247-3.132 3.731" fill-rule="evenodd"/></svg>